<svg width="96" height="96" viewBox="0 0 96 96" fill="none" xmlns="http://www.w3.org/2000/svg">
<path fill-rule="evenodd" clip-rule="evenodd" d="M21.0002 18.7688L21.0002 19.7688L20.0002 19.7688L20.0002 20.7688L19.0002 20.7688L19.0002 21.7688L18.0002 21.7688L18.0002 22.7688L17.0002 22.7688L17.0002 23.7688L18.0002 23.7688L18.0002 24.7688L19.0002 24.7688L19.0002 25.7688L20.0002 25.7688L20.0002 26.7688L20.0002 27.7688L21.0002 27.7688L21.0002 28.7688L22.0002 28.7688L22.0002 29.7688L23.0002 29.7688L23.0002 30.7688L23.0002 31.7688L24.0002 31.7688L24.0002 32.7688L25.0002 32.7688L25.0002 33.7688L26.0002 33.7688L26.0002 34.7688L27.0002 34.7688L27.0002 35.7688L28.0002 35.7688L28.0002 36.7688L28.0002 37.7688L27.0002 37.7688L27.0002 36.7688L25.0002 36.7688L25.0002 35.7688L21.0002 35.7688L21.0002 34.7688L18.0002 34.7688L18.0002 33.7688L15.0002 33.7688L15.0002 32.7688L12.0002 32.7688L12.0002 33.7688L11.0002 33.7688L11.0002 34.7688L11.0002 35.7688L11.0002 36.7688L10.0002 36.7688L10.0002 37.7688L10.0002 38.7688L12.0002 38.7688L12.0002 39.7688L15.0002 39.7688L15.0002 40.7688L19.0002 40.7688L19.0002 41.7688L22.0002 41.7688L22.0002 42.7688L25.0002 42.7688L25.0002 43.7688L28.0002 43.7688L28.0002 44.7688L33.0002 44.7688L33.0002 43.7688L33.0002 42.7688L34.0002 42.7688L34.0002 41.7688L34.0002 40.7688L35.0002 40.7688L35.0002 39.7688L35.0002 38.7688L36.0002 38.7688L36.0002 37.7688L36.0002 36.7688L35.0002 36.7688L35.0002 35.7688L34.0002 35.7688L34.0002 34.7688L33.0002 34.7688L33.0002 33.7688L33.0002 32.7688L32.0002 32.7688L32.0002 31.7688L31.0002 31.7688L31.0002 30.7688L30.0002 30.7688L30.0002 29.7688L30.0002 28.7688L29.0002 28.7688L29.0002 27.7688L28.0002 27.7688L28.0002 26.7688L27.0002 26.7688L27.0002 25.7688L27.0002 24.7688L26.0002 24.7688L26.0002 23.7688L25.0002 23.7688L25.0002 22.7688L24.0002 22.7688L24.0002 21.7688L24.0002 20.7688L23.0002 20.7688L23.0002 19.7688L22.0002 19.7688L22.0002 18.7688L21.0002 18.7688ZM58 9.00024L57 9.00024L57 11.0002L56 11.0002L56 14.0002L55 14.0002L55 18.0002L54 18.0002L54 21.0002L53 21.0002L53 24.0002L52 24.0002L52 27.0002L51 27.0002L51 32.0002L52 32.0002L53 32.0002L53 33.0002L54 33.0002L55 33.0002L55 34.0002L56 34.0002L57 34.0002L57 35.0002L58 35.0002L59 35.0002L59 34.0002L60 34.0002L60 33.0002L61 33.0002L61 32.0002L62 32.0002L63 32.0002L63 31.0002L64 31.0002L64 30.0002L65 30.0002L65 29.0002L66 29.0002L67 29.0002L67 28.0002L68 28.0002L68 27.0002L69 27.0002L69 26.0002L70 26.0002L71 26.0002L71 25.0002L72 25.0002L72 24.0002L73 24.0002L73 23.0002L74 23.0002L75 23.0002L75 22.0002L76 22.0002L76 21.0002L77 21.0002L77 20.0002L76 20.0002L76 19.0002L75 19.0002L75 18.0002L74 18.0002L74 17.0002L73 17.0002L73 16.0002L72 16.0002L72 17.0002L71 17.0002L71 18.0002L70 18.0002L70 19.0002L69 19.0002L68 19.0002L68 20.0002L67 20.0002L67 21.0002L66 21.0002L66 22.0002L65 22.0002L64 22.0002L64 23.0002L63 23.0002L63 24.0002L62 24.0002L62 25.0002L61 25.0002L61 26.0002L60 26.0002L60 27.0002L59 27.0002L58 27.0002L58 26.0002L59 26.0002L59 24.0002L60 24.0002L60 20.0002L61 20.0002L61 17.0002L62 17.0002L62 14.0002L63 14.0002L63 11.0002L62 11.0002L62 10.0002L61 10.0002L60 10.0002L59 10.0002L59 9.00025L58 9.00024ZM38.7693 86.7698L39.7693 86.7698L39.7693 84.7698L40.7693 84.7698L40.7693 81.7698L41.7693 81.7698L41.7693 77.7698L42.7693 77.7698L42.7693 74.7698L43.7693 74.7698L43.7693 71.7698L44.7693 71.7698L44.7693 68.7698L45.7693 68.7698L45.7693 63.7698L44.7693 63.7698L43.7693 63.7698L43.7693 62.7698L42.7693 62.7698L41.7693 62.7698L41.7693 61.7698L40.7693 61.7698L39.7693 61.7698L39.7693 60.7698L38.7693 60.7698L37.7693 60.7698L37.7693 61.7698L36.7693 61.7698L36.7693 62.7698L35.7693 62.7698L35.7693 63.7698L34.7693 63.7698L33.7693 63.7698L33.7693 64.7698L32.7693 64.7698L32.7693 65.7698L31.7693 65.7698L31.7693 66.7698L30.7693 66.7698L29.7693 66.7698L29.7693 67.7698L28.7693 67.7698L28.7693 68.7698L27.7693 68.7698L27.7693 69.7698L26.7693 69.7698L25.7693 69.7698L25.7693 70.7698L24.7693 70.7698L24.7693 71.7698L23.7693 71.7698L23.7693 72.7698L22.7693 72.7698L21.7693 72.7698L21.7693 73.7698L20.7693 73.7698L20.7693 74.7698L19.7693 74.7698L19.7693 75.7698L20.7693 75.7698L20.7693 76.7698L21.7693 76.7698L21.7693 77.7698L22.7693 77.7698L22.7693 78.7698L23.7693 78.7698L23.7693 79.7698L24.7693 79.7698L24.7693 78.7698L25.7693 78.7698L25.7693 77.7698L26.7693 77.7698L26.7693 76.7698L27.7693 76.7698L28.7693 76.7698L28.7693 75.7698L29.7693 75.7698L29.7693 74.7698L30.7693 74.7698L30.7693 73.7698L31.7693 73.7698L32.7693 73.7698L32.7693 72.7698L33.7693 72.7698L33.7693 71.7698L34.7693 71.7698L34.7693 70.7698L35.7693 70.7698L35.7693 69.7698L36.7693 69.7698L36.7693 68.7698L37.7693 68.7698L38.7693 68.7698L38.7693 69.7698L37.7693 69.7698L37.7693 71.7698L36.7693 71.7698L36.7693 75.7698L35.7693 75.7698L35.7693 78.7698L34.7693 78.7698L34.7693 81.7698L33.7693 81.7698L33.7693 84.7698L34.7693 84.7698L34.7693 85.7698L35.7693 85.7698L36.7693 85.7698L37.7693 85.7698L37.7693 86.7698L38.7693 86.7698ZM86.7695 57.0002L86.7695 58.0002L86.7695 59.0002L85.7695 59.0002L85.7695 60.0002L85.7695 61.0002L85.7695 62.0002L84.7695 62.0002L84.7695 63.0002L81.7695 63.0002L81.7695 62.0002L78.7695 62.0002L78.7695 61.0002L75.7695 61.0002L75.7695 60.0002L71.7695 60.0002L71.7695 59.0002L69.7695 59.0002L69.7695 58.0002L68.7695 58.0002L68.7695 59.0002L68.7695 60.0002L69.7695 60.0002L69.7695 61.0002L70.7695 61.0002L70.7695 62.0002L71.7695 62.0002L71.7695 63.0002L72.7695 63.0002L72.7695 64.0002L73.7695 64.0002L73.7695 65.0002L73.7695 66.0002L74.7695 66.0002L74.7695 67.0002L75.7695 67.0002L75.7695 68.0002L76.7695 68.0002L76.7695 69.0002L76.7695 70.0002L77.7695 70.0002L77.7695 71.0002L78.7695 71.0002L78.7695 72.0002L79.7695 72.0002L79.7695 73.0002L78.7695 73.0002L78.7695 74.0002L77.7695 74.0002L77.7695 75.0002L76.7695 75.0002L76.7695 76.0002L75.7695 76.0002L75.7695 77.0002L74.7695 77.0002L74.7695 76.0002L73.7695 76.0002L73.7695 75.0002L72.7695 75.0002L72.7695 74.0002L72.7695 73.0002L71.7695 73.0002L71.7695 72.0002L70.7695 72.0002L70.7695 71.0002L69.7695 71.0002L69.7695 70.0002L69.7695 69.0002L68.7695 69.0002L68.7695 68.0002L67.7695 68.0002L67.7695 67.0002L66.7695 67.0002L66.7695 66.0002L66.7695 65.0002L65.7695 65.0002L65.7695 64.0002L64.7695 64.0002L64.7695 63.0002L63.7695 63.0002L63.7695 62.0002L63.7695 61.0002L62.7695 61.0002L62.7695 60.0002L61.7695 60.0002L61.7695 59.0002L60.7695 59.0002L60.7695 58.0002L60.7695 57.0002L61.7695 57.0002L61.7695 56.0002L61.7695 55.0002L62.7695 55.0002L62.7695 54.0002L62.7695 53.0002L63.7695 53.0002L63.7695 52.0002L63.7695 51.0002L68.7695 51.0002L68.7695 52.0002L71.7695 52.0002L71.7695 53.0002L74.7695 53.0002L74.7695 54.0002L77.7695 54.0002L77.7695 55.0002L81.7695 55.0002L81.7695 56.0002L84.7695 56.0002L84.7695 57.0002L86.7695 57.0002ZM81.6274 26.2424L82.3345 26.9495L63.9498 45.3343L63.2427 44.6272L63.9493 43.9206L63.2426 43.2139L79.5061 26.9504L80.2128 27.6571L81.6274 26.2424ZM76.6777 28.3645L77.3848 29.0716L63.2427 43.2137L62.5356 42.5066L76.6777 28.3645ZM73.8492 31.1927L73.1421 30.4856L62.5355 41.0922L63.2426 41.7993L73.8492 31.1927ZM70.3137 31.8997L71.0208 32.6068L62.5355 41.092L61.8284 40.3849L70.3137 31.8997ZM68.1925 34.0208L67.4854 33.3137L61.8285 38.9706L62.5356 39.6777L68.1925 34.0208ZM64.6567 34.7278L65.3638 35.4349L61.8283 38.9704L61.1212 38.2633L64.6567 34.7278ZM83.0416 27.6575L82.3345 26.9504L70.3137 38.9713L71.0208 39.6784L72.4351 38.2641L73.1421 38.9711L75.9705 36.1427L76.6775 36.8497L83.7486 29.7786L83.0416 29.0716L83.0415 29.0715L82.3345 28.3646L83.0416 27.6575ZM69.6067 39.678L70.3137 40.385L70.3138 40.3851L71.0208 41.0921L66.0711 46.0419L65.364 45.3348L64.6569 46.0419L63.9498 45.3348L69.6067 39.678ZM72.4351 41.092L71.728 40.385L66.7783 45.3348L67.4854 46.0419L68.1924 45.3348L68.8995 46.0419L73.8492 41.0921L73.1421 40.385L72.4351 41.092ZM75.2634 41.092L74.5564 40.385L68.8995 46.0419L69.6067 46.749L70.3137 46.0419L71.0207 46.749L76.6776 41.0921L75.9705 40.385L75.2634 41.092ZM77.3848 40.385L78.0918 41.092L78.0919 41.0921L78.7989 41.7991L73.8492 46.7489L73.1421 46.0419L72.435 46.749L71.7279 46.0419L77.3848 40.385ZM79.5061 41.092L80.2132 41.7991L74.5564 47.456L73.8492 46.7489L79.5061 41.092ZM80.9204 41.092L81.6274 41.7991L82.3345 41.092L83.0415 41.7991L83.0416 41.7992L83.7486 42.5062L78.7989 47.4559L78.0918 46.7489L77.3847 47.456L76.6777 46.749L75.9707 47.456L75.2636 46.7489L80.9204 41.092ZM84.4558 41.7991L85.1629 42.5062L79.5061 48.163L78.799 47.4559L84.4558 41.7991ZM85.8701 41.7991L86.5772 42.5061L87.2842 41.7991L87.9913 42.5062L87.2843 43.2132L87.9913 43.9202L87.2843 44.6273L87.9913 45.3343L84.4558 48.8698L83.7487 48.1628L83.7486 48.1629L83.0416 47.4559L82.3344 48.163L81.6274 47.456L80.9204 48.163L80.2133 47.4559L85.8701 41.7991ZM87.9913 46.7493L87.2842 46.0422L85.1629 48.1636L85.87 48.8707L86.5771 48.1635L87.2842 48.8705L87.9913 48.1634L87.2843 47.4564L87.9913 46.7493ZM84.4559 30.4857L83.7488 29.7786L78.799 34.7283L79.5061 35.4354L81.6275 33.314L82.3346 34.0211L84.4559 31.8997L83.7489 31.1927L84.4559 30.4857ZM14.435 68.8195L15.1421 69.5266L16.5568 68.1119L17.2634 68.8186L33.5269 52.5551L32.8202 51.8485L33.5269 51.1418L32.8198 50.4347L14.435 68.8195ZM19.3847 66.6974L20.0918 67.4045L34.2339 53.2624L33.5268 52.5553L19.3847 66.6974ZM23.6274 65.2834L22.9203 64.5763L33.5269 53.9697L34.234 54.6768L23.6274 65.2834ZM25.7487 63.1623L26.4558 63.8694L34.9411 55.3841L34.234 54.677L25.7487 63.1623ZM29.2842 62.4553L28.5771 61.7482L34.2339 56.0914L34.941 56.7985L29.2842 62.4553ZM31.4057 60.3342L32.1128 61.0413L35.6483 57.5057L34.9412 56.7986L31.4057 60.3342ZM14.4351 68.8186L13.728 68.1115L14.435 67.4045L13.728 66.6975L13.728 66.6974L13.0209 65.9904L20.092 58.9193L20.799 59.6264L23.6274 56.7979L24.3345 57.505L25.7488 56.0907L26.4559 56.7978L14.4351 68.8186ZM26.4558 55.384L27.1628 56.0911L32.8197 50.4342L32.1126 49.7271L31.4055 50.4342L30.6985 49.7272L25.7487 54.6769L26.4557 55.384L26.4558 55.384ZM27.8701 49.7272L28.5771 50.4342L29.2841 49.7272L29.9913 50.4343L25.0415 55.384L24.3345 54.677L23.6274 55.384L22.9203 54.6769L27.8701 49.7272ZM25.7488 49.0201L26.4559 49.7271L27.1629 49.0201L27.87 49.7272L22.2131 55.384L21.5061 54.677L20.7991 55.384L20.092 54.6769L25.7488 49.0201ZM18.6777 54.677L19.3848 55.384L25.0416 49.7272L24.3345 49.0201L23.6274 49.7272L22.9204 49.0201L17.9706 53.9699L18.6777 54.6769L18.6777 54.677ZM16.5563 53.9699L17.2634 54.677L22.9203 49.0201L22.2132 48.313L16.5563 53.9699ZM20.0918 49.0201L19.3848 48.313L18.6777 49.0201L17.9707 48.3131L13.0209 53.2629L13.728 53.9699L13.728 53.97L14.4351 54.677L15.1421 53.97L15.8491 54.677L21.506 49.0201L20.7989 48.313L20.0918 49.0201ZM11.6066 53.2629L12.3137 53.97L17.9706 48.3131L17.2635 47.606L11.6066 53.2629ZM15.1421 48.313L14.4351 47.606L13.7279 48.3132L13.0209 47.6062L13.0208 47.6062L12.3138 46.8992L8.77825 50.4347L9.48528 51.1418L8.77824 51.8488L9.48528 52.5558L8.77824 53.2629L9.48535 53.97L10.1924 53.2629L10.8994 53.97L16.5563 48.3131L15.8492 47.606L15.1421 48.313ZM9.48535 49.7268L8.77825 49.0197L9.48528 48.3127L8.77825 47.6056L9.48535 46.8985L10.1924 47.6056L10.8996 46.8984L11.6067 47.6055L9.48535 49.7268ZM13.0208 65.9905L12.3136 65.2834L13.0207 64.5763L12.3136 63.8693L14.435 61.748L15.142 62.455L17.2634 60.3336L17.9705 61.0407L13.0208 65.9905ZM69.5269 81.6272L68.8198 82.3343L50.435 63.9495L51.1421 63.2424L51.8493 63.9497L52.5564 63.2426L52.5565 63.2427L53.2634 62.5358L53.9707 63.2431L54.6776 62.5362L65.2842 73.1428L64.5773 73.8497L67.4055 76.678L66.6986 77.3849L68.8198 79.5061L68.1128 80.2131L69.5269 81.6272ZM63.8701 70.3137L63.163 71.0208L54.6777 62.5355L55.3848 61.8284L56.092 62.5357L56.799 61.8287L56.7991 61.8288L57.506 61.1219L61.0415 64.6575L60.3346 65.3644L62.4558 67.4856L61.7489 68.1925L63.8701 70.3137ZM68.1127 83.0423L68.8198 82.3352L56.799 70.3144L56.0919 71.0215L68.1127 83.0423ZM56.0918 69.6067L55.3848 70.3137L55.3847 70.3138L54.6777 71.0208L55.3848 71.7278L54.6777 72.4349L49.7279 67.4851L50.4349 66.7781L49.7279 66.0711L50.4349 65.364L49.7278 64.6569L50.4349 63.9498L56.0918 69.6067ZM55.3848 73.1428L54.6777 73.8499L55.3848 74.5569L54.6777 75.2639L55.3848 75.9709L54.6777 76.678L55.3848 77.385L54.6777 78.092L54.6777 78.0921L53.9707 78.7991L54.6777 79.5061L53.9707 80.2131L54.6777 80.9202L53.9706 81.6273L48.3138 75.9704L49.0208 75.2634L48.3138 74.5564L49.0209 73.8492L49.021 73.8493L49.7279 73.1424L49.0208 72.4353L49.7278 71.7282L49.0208 71.0212L49.7278 70.3142L49.0208 69.6071L49.7279 68.9L49.728 68.9001L50.435 68.1931L55.3848 73.1428ZM54.6777 82.3352L53.9706 83.0423L48.3138 77.3855L49.0209 76.6784L54.6777 82.3352ZM53.9705 83.0422L53.2634 83.7493L53.9705 84.4563L53.2634 85.1633L53.9705 85.8704L53.2634 86.5774L53.9705 87.2844L53.2634 87.9915L52.5563 87.2845L51.8493 87.9915L47.6066 83.7489L48.3137 83.0419L47.6065 82.3347L48.3135 81.6276L47.6065 80.9206L48.3135 80.2136L47.6065 79.5066L48.3136 78.7994L48.3137 78.7995L49.0207 78.0925L53.9705 83.0422ZM51.1421 87.2844L50.435 87.9915L46.8995 84.456L47.6066 83.7489L51.1421 87.2844ZM49.0207 87.9915L49.7278 87.2844L47.6065 85.1631L46.8994 85.8702L47.6065 86.5774L46.8995 87.2844L47.6066 87.9915L48.3136 87.2845L49.0207 87.9915ZM66.6985 83.0422L67.4055 82.3352L57.506 72.4357L56.7989 73.1428L59.6273 75.9712L58.9203 76.6783L61.0416 78.7996L60.3346 79.5066L65.2844 84.4564L65.9914 83.7493L65.9915 83.7493L66.6984 83.0423L66.6985 83.0422ZM64.5771 83.7493L63.87 84.4564L61.7487 82.3351L62.4558 81.6279L64.5771 83.7493ZM27.9495 13.4357L27.2424 14.1428L28.6565 15.5569L27.9495 16.2639L30.0707 18.3851L29.3638 19.092L32.192 21.9203L31.4851 22.6272L42.0917 33.2338L42.7986 32.5269L43.5059 33.2342L44.2128 32.5273L44.2129 32.5274L44.92 31.8203L45.6272 32.5276L46.3343 31.8205L27.9495 13.4357ZM33.6063 24.7492L32.8992 25.4563L35.0204 27.5775L34.3135 28.2844L36.4347 30.4056L35.7278 31.1126L39.2633 34.6481L39.9702 33.9412L39.9703 33.9413L40.6772 33.2344L41.3845 33.9416L42.0916 33.2345L33.6063 24.7492ZM27.9495 13.4348L28.6566 12.7277L40.6774 24.7485L39.9703 25.4556L27.9495 13.4348ZM41.3845 25.4563L40.6775 26.1633L46.3343 31.8202L47.0415 31.1131L46.3343 30.406L47.0414 29.6989L46.3343 28.9919L47.0414 28.2849L42.0916 23.3351L41.3845 24.0422L42.0916 24.7493L41.3846 25.4562L41.3845 25.4563ZM47.0413 26.8699L47.0414 26.87L47.7485 26.1629L47.0415 25.4559L47.7485 24.7488L47.0415 24.0418L47.7485 23.3348L47.0414 22.6277L47.7483 21.9207L47.7484 21.9208L48.4555 21.2137L47.7485 20.5066L48.4555 19.7996L42.7987 14.1427L42.0916 14.8499L42.7986 15.5569L42.0916 16.2639L42.7986 16.9709L42.0916 17.6779L42.0916 17.678L41.3845 18.385L42.0916 19.092L41.3845 19.7991L42.0916 20.5061L41.3845 21.2131L42.0916 21.9202L41.3845 22.6272L46.3343 27.5769L47.0413 26.8699ZM42.7987 12.7277L42.0916 13.4348L47.7484 19.0917L48.4555 18.3846L42.7987 12.7277ZM48.4556 16.9705L48.4557 16.9706L49.1628 16.2635L48.4558 15.5564L49.1628 14.8494L48.4558 14.1424L49.1628 13.4353L48.4556 12.7282L49.1626 12.0211L44.92 7.77849L44.213 8.48552L43.5059 7.77849L42.7988 8.4856L43.5059 9.19263L42.7988 9.89966L43.5059 10.6067L42.7988 11.3137L43.5059 12.0208L42.7988 12.7278L47.7486 17.6775L48.4556 16.9705ZM46.3343 7.77849L45.6272 8.4856L49.1627 12.0211L49.8698 11.314L46.3343 7.77849ZM47.0415 8.4856L47.7486 7.77849L48.4556 8.48552L49.1627 7.77849L49.8698 8.4856L49.1627 9.19263L49.8699 9.89981L49.1628 10.6069L47.0415 8.4856ZM29.3638 13.4348L30.0708 12.7278L30.0709 12.7277L30.7778 12.0208L30.7779 12.0207L31.4849 11.3136L36.4347 16.2634L35.7277 16.9704L37.849 19.0917L37.1419 19.7988L39.9704 22.6272L39.2633 23.3343L29.3638 13.4348ZM32.8992 11.3136L32.1921 12.0208L34.3135 14.1421L35.0206 13.435L32.8992 11.3136Z" fill="#D9D9D9"/>
</svg>
